<svg version="1.1" xmlns="http://www.w3.org/2000/svg" xmlns:xlink="http://www.w3.org/1999/xlink" width="55.87198" height="66.12112" viewBox="0,0,55.87198,66.12112"><g transform="translate(-212.06401,-146.93944)"><g data-paper-data="{&quot;isPaintingLayer&quot;:true}" fill="#fb3535" fill-rule="evenodd" stroke="none" stroke-width="1" stroke-linecap="butt" stroke-linejoin="miter" stroke-miterlimit="10" stroke-dasharray="" stroke-dashoffset="0" style="mix-blend-mode: normal"><path d="M263.09735,159.66273c2.99424,1.85794 4.83864,5.29154 4.83864,9.00742v22.65971c0,3.71601 -1.84441,7.14935 -4.83864,9.00735l-18.25857,11.32985c-2.99424,1.858 -6.68335,1.858 -9.67759,0l-18.25851,-11.32985c-2.99417,-1.858 -4.83867,-5.29134 -4.83867,-9.00735v-22.65971c0,-3.71587 1.8445,-7.14948 4.83867,-9.00742l18.25851,-11.32985c2.99424,-1.8579 6.68335,-1.85794 9.67759,0zM230.77196,182.47954c-1.27413,0 -2.30704,-1.11017 -2.30704,-2.47954c0,-1.36937 1.03291,-2.47954 2.30704,-2.47954h18.45636c1.2741,0 2.30704,1.11017 2.30704,2.47954c0,1.36937 -1.03294,2.47954 -2.30704,2.47954z"/></g></g></svg>