<svg version="1.1" xmlns="http://www.w3.org/2000/svg" xmlns:xlink="http://www.w3.org/1999/xlink" width="48.25157" height="32.94079" viewBox="0,0,48.25157,32.94079"><g transform="translate(-332.09726,-46.62929)"><g data-paper-data="{&quot;isPaintingLayer&quot;:true}" fill="#21c75e" fill-rule="nonzero" stroke="none" stroke-width="1" stroke-linecap="butt" stroke-linejoin="miter" stroke-miterlimit="10" stroke-dasharray="" stroke-dashoffset="0" style="mix-blend-mode: normal"><path d="M374.52535,57.60956c-1.16469,1.09803 -2.66215,1.72547 -4.15962,1.88233v15.37237c0,2.66664 -2.16301,4.70582 -4.99154,4.70582h-28.2854c-2.82854,0 -4.99154,-2.0392 -4.99154,-4.70582v-10.98026h1.66385h1.66385h16.13932c-0.33277,-0.15686 -0.49916,-0.31373 -0.66554,-0.47058c-0.66554,-0.62744 -0.66554,-1.56861 0,-2.19605l0.49916,-0.47058h-15.97292h-3.3277v-1.56861c0,-2.66664 2.16301,-4.70582 4.99154,-4.70582h12.47886c2.49577,-4.70582 7.6537,-7.84305 13.31077,-7.84305h15.80654c0.99831,0 1.66385,0.62744 1.66385,1.56861c0,0.94117 -0.66554,1.56861 -1.66385,1.56861h-15.80654c-3.82684,0 -7.32092,1.72547 -9.48393,4.70582h4.65877l1.16469,-1.09803c0.66554,-0.62744 1.66385,-0.62744 2.32939,0c0.66554,0.62744 0.66554,1.56861 0,2.19605l-1.66385,1.56861l-5.32431,5.01955c2.16301,1.25488 4.99154,1.09803 6.65539,-0.47058l5.49069,-5.17641c0.49916,-0.31373 0.99831,-0.47058 1.66385,-0.31373c1.33107,0.47058 2.82854,0.15686 3.82684,-0.7843c0.66554,-0.62744 1.66385,-0.62744 2.32939,0c0.66554,0.62744 0.66554,1.56861 0,2.19605zM345.40803,71.72704c0,-0.94117 -0.66554,-1.56861 -1.66385,-1.56861h-3.3277c-0.99831,0 -1.66385,0.62744 -1.66385,1.56861c0,0.94117 0.66554,1.56861 1.66385,1.56861h3.3277c0.99831,0 1.66385,-0.62744 1.66385,-1.56861zM363.71034,70.15843c0,-1.72547 -1.49746,-3.13722 -3.3277,-3.13722c-0.99831,0 -1.83023,0.47058 -2.49577,1.09803c-0.66554,-0.62744 -1.49746,-1.09803 -2.49577,-1.09803c-1.83023,0 -3.3277,1.41174 -3.3277,3.13722c0,1.72547 1.49746,3.13722 3.3277,3.13722c0.99831,0 1.83023,-0.47058 2.49577,-1.09803c0.66554,0.62744 1.49746,1.09803 2.49577,1.09803c1.83023,0 3.3277,-1.41174 3.3277,-3.13722z"/></g></g></svg>