<svg version="1.1" xmlns="http://www.w3.org/2000/svg" xmlns:xlink="http://www.w3.org/1999/xlink" width="129.39489" height="121.17039" viewBox="0,0,129.39489,121.17039"><g transform="translate(-317.07644,-77.13512)"><g data-paper-data="{&quot;isPaintingLayer&quot;:true}" fill-rule="nonzero" stroke-linecap="butt" stroke-linejoin="miter" stroke-miterlimit="10" stroke-dasharray="" stroke-dashoffset="0" style="mix-blend-mode: normal"><g><path d="M348.74048,83.55941l0.07334,0.04992c3.90745,0.01213 7.97383,0.80406 11.93148,1.11071c3.67158,2.78334 9.88383,2.14574 14.19985,4.31488c2.20617,0.51663 4.34003,1.18892 6.47035,1.85951c0.65986,0.03595 1.40963,0.1332 2.1827,0.18407c1.12027,0.86836 3.69,0.39937 5.36182,0.15287c2.82647,0.29946 4.79526,2.02704 7.44097,2.69878c3.61374,1.20711 4.59595,4.25193 7.19065,6.20863c1.56063,1.55403 3.57145,2.9716 4.21944,4.90146c1.75708,1.36597 2.91118,2.5049 4.89062,3.94487c1.80973,1.41994 4.07669,2.69533 4.24454,4.55819c0.20746,0.11604 0.4182,0.2301 0.6341,0.34007c4.27701,0.76419 5.31746,1.15117 6.33243,2.97643c0.4355,0.22874 0.74024,0.52535 0.93174,0.86422c1.99092,1.81106 2.94781,4.09287 2.11804,6.61109c0.55032,3.68981 -1.80482,8.82413 2.94188,11.3686c5.03578,1.58748 3.46869,6.11854 3.71401,9.32547c0.08512,1.42537 0.09166,2.87491 0.13803,4.32425c0.35136,0.98195 0.51741,1.99765 0.65134,3.00762c-0.02497,1.06434 0.01753,2.13904 0.24156,3.19795c0.00699,0.1145 0.01347,0.22897 0.0259,0.34318c0.11739,0.36329 0.25109,0.72499 0.40115,1.08259c0.05417,0.51184 0.07032,0.97748 0.05607,1.40396c0.1094,0.62685 0.17495,1.25559 0.10785,1.89069c-0.00183,0.03671 -0.00227,0.07048 -0.00862,0.10295c0.63743,1.31279 -0.0089,3.97289 -0.04314,5.48795c0.43884,2.3719 1.39737,4.69584 1.71247,7.10098c0.52958,2.4677 0.6338,5.05035 2.14819,7.32555c0.66069,2.38482 1.92123,4.87669 1.21214,7.27879c-2.66794,0.80315 -5.70804,1.09468 -8.55824,1.68792c-3.37623,0.33873 -6.42097,1.29956 -8.84295,3.04195c-0.97286,0.46689 -1.70343,0.46036 -2.32076,0.21527c-0.48718,-0.07447 -1.08747,-0.19706 -1.72543,-0.34319c-3.8095,0.55874 -9.07229,0.73289 -10.02052,-0.45863c-7.5085,-0.03526 -15.0215,0.07382 -22.52959,-0.04992c-8.71036,-1.24707 -17.63706,-1.70489 -26.34796,-3.02942c-4.2781,0.42852 -8.10479,-1.54496 -10.75814,-3.77516c-2.70246,-3.04906 -9.04853,-1.55324 -11.93148,-4.42094c-0.97185,-1.55472 -2.14209,-3.06988 -3.136,-4.71735c-0.20841,-0.22278 -0.33961,-0.47748 -0.43136,-0.74878c-0.70211,-1.27401 -1.27466,-2.63791 -1.54863,-4.16825c-0.91946,-3.17417 -1.61793,-6.70513 -5.31011,-8.89182c-1.40866,-1.34969 -2.64144,-3.05626 -3.06274,-4.34606c-0.15996,-0.22448 -0.23983,-0.50107 -0.21137,-0.85174c0.08688,-1.76182 -0.2595,-3.60219 0.65998,-5.28824c0.25476,-0.35478 0.4353,-0.8221 0.65136,-1.27292c-0.94413,-0.41638 -1.69113,-0.91037 -1.75571,-1.74407c0.05539,-2.43258 2.75975,-4.17901 3.66653,-6.42392c1.95489,-1.55847 0.6025,-3.90353 1.68655,-5.7064c0.52835,-2.03859 1.52724,-3.98947 2.09635,-6.01523c0.2411,-1.81856 0.46821,-3.62163 0.87568,-5.42559c0.23273,-1.33035 0.62671,-2.74299 1.92391,-3.76263c1.19491,-2.24471 1.18738,-4.6687 1.85052,-6.99176c0.06841,-0.17017 0.15389,-0.3376 0.25449,-0.49918c0.00042,-2.89306 0.00122,-5.78671 0,-8.67968c-0.37965,-2.65004 2.29718,-4.81325 2.67013,-7.35683c0.08294,-2.18669 1.66172,-4.08261 3.12304,-5.9216c0.99436,-1.58225 1.98631,-3.17447 3.00231,-4.7579c-0.31267,-1.92828 2.15051,-3.01341 4.50769,-3.31645z" fill="#666666" stroke="#000000" stroke-width="12"/><path d="M336.82136,113.07285c0.59815,2.02586 2.05242,3.98088 1.52953,6.11163c-0.06081,2.28881 3.27911,5.53531 1.82951,7.67632c-0.82059,1.80721 -2.05843,3.35986 -1.79964,5.26456c-0.30449,1.91378 -1.71506,3.18354 -0.2617,4.80644c1.4575,1.96725 1.95789,4.22124 2.4475,6.39373c0.33128,2.21037 3.29316,4.42578 3.28129,6.64484c0.19898,1.90016 0.04367,8.49359 -3.30352,9.36573c-2.3992,0.78043 -6.76297,-2.98512 -8.0198,-0.98718c-0.79188,1.26059 -2.18475,0.90638 -2.06579,-0.43074c-0.0887,-1.92582 1.04356,-4.24492 -1.07969,-5.80626c-1.28821,-1.71743 -5.39237,-1.75008 -5.54707,-3.74743c0.0548,-2.40406 2.72797,-4.12978 3.62411,-6.34834c1.9321,-1.54022 0.59339,-3.85666 1.66472,-5.63842c0.52224,-2.01471 1.50906,-3.94211 2.07152,-5.94419c0.23827,-1.79725 0.46579,-3.58138 0.86848,-5.36412c0.22992,-1.31486 0.61768,-2.70974 1.89963,-3.71744c1.18092,-2.21846 1.17314,-4.61454 1.82856,-6.91035c0.20233,-0.50322 0.5477,-0.97757 1.03243,-1.36873z" fill="#666666" stroke="none" stroke-width="1"/><path d="M327.83318,148.60776c0.94743,0.44509 1.87782,0.98096 2.35909,1.74219c1.79556,1.04125 1.08857,2.92444 2.1501,4.24137c0.34345,1.27045 0.1474,2.59163 0.11125,3.87916c-0.50993,1.37629 1.52458,1.44362 2.50138,2.10411c1.03379,0.97682 1.49256,2.38778 3.27324,2.80613c1.86799,0.57721 2.72088,2.00297 3.86243,3.14457c1.07894,0.92354 2.77108,1.36557 3.82982,2.32365c0.3431,0.99853 0.3596,2.94921 -1.54644,3.14161c-1.97985,-0.23088 -4.01968,0.42428 -5.26195,1.5412c-1.17224,0.78362 -1.37743,2.96043 -3.59409,2.35769c-1.79864,-0.72531 -1.21477,-2.47915 -1.68696,-3.7055c-0.3965,-1.38659 0.18538,-2.81876 -0.36248,-4.18404c-0.76272,-1.43888 -0.71622,-2.99637 -1.17428,-4.48587c-0.95779,-1.6302 -1.77604,-3.47876 -3.96488,-4.47166c-1.41562,-0.83543 -4.206,-0.66315 -4.05956,-2.46711c0.08586,-1.74131 -0.25568,-3.56144 0.65305,-5.22776c0.71306,-0.993 0.8106,-2.8851 2.91009,-2.73914z" fill="#666666" stroke="none" stroke-width="1"/><path d="M350.96711,167.63194c-0.18772,0.04933 1.9587,-2.72997 1.7669,-2.68981c-1.04497,0.14484 -2.26468,4.53241 -2.78527,5.17349c-0.36287,0.62208 -3.00778,1.96743 -4.20512,0.29401c-0.49083,-0.96727 -1.90108,-1.16016 -3.05524,-1.52137c-1.04647,-0.57327 -1.9039,-1.38112 -3.25796,-1.62152c-0.9136,-0.16819 -1.8483,-0.40994 -2.45418,-0.96595c-1.00186,-0.92985 -2.04255,-1.86997 -2.63425,-2.98177c-0.68427,-1.05319 -2.19946,-2.08437 -2.43248,-3.23436c-0.36828,-0.94741 -1.09572,-1.13768 -1.12196,-2.11585c0.12237,-0.65773 4.78524,-1.36473 5.5678,-2.30292c2.84393,0.01529 1.07212,-1.49887 4.68559,1.79518c1.62025,0.33767 4.46059,-0.5502 5.74337,0.18533c1.88149,1.03306 3.89435,4.40259 4.39719,6.10956c0.40994,1.38728 -1.9823,3.02715 -0.21431,3.8757z" fill="#4d4d4d" stroke="none" stroke-width="1"/><path d="M392.54279,185.58947c1.99786,1.84612 -2.89099,2.72354 -5.39428,1.75246c-1.7036,1.18804 -4.1275,0.50677 -6.19438,0.77298c-2.61502,0.34543 -5.27368,0.19742 -7.91748,0.24144c-1.95093,0.10163 -3.79736,-0.33982 -5.59359,-0.84161c-1.63007,-0.90427 -4.75038,-0.25648 -6.75042,-0.52784c-1.65654,-0.84233 -2.08557,-2.56081 -3.62643,-3.52681c-1.40921,-0.70815 -2.54078,-1.66954 -3.76912,-2.52493c-1.5283,-1.20465 -2.25421,-2.7569 -2.94992,-4.2761c-0.66422,-1.12778 -3.30805,-2.87254 -4.23786,-3.89998c-0.39084,-1.35087 1.32422,-2.87146 2.93369,-3.87353c2.10372,-0.71396 1.37729,-6.52581 3.25932,-6.19046c2.15924,0.48486 6.95983,8.67449 9.01211,9.31767c1.61888,0.68259 2.42785,1.33739 4.1339,1.82873c1.47442,0.69749 3.46273,-0.50368 4.98039,0.15639c1.71301,1.06987 3.65262,1.90732 5.61146,2.72108c1.41685,0.72093 5.59955,0.75509 6.75288,1.53479c1.68109,0.90134 3.47268,1.81416 5.24026,2.66336c2.11354,0.02359 2.5719,4.58821 4.50974,4.67225z" fill="#4d4d4d" stroke="none" stroke-width="1"/><path d="M415.1657,189.4708c0.50557,-2.35956 -0.41089,-3.96124 -4.06787,-3.69425c-3.43503,0.16666 -6.88807,0.22732 -10.31778,0.52815c-1.69241,1.56627 -5.63544,1.05694 -6.78889,2.69188c-1.63102,2.2974 -4.32121,0.03937 -4.2309,-1.75304c-0.21227,-2.54831 -2.38269,-4.65804 -5.62196,-5.6469c-2.82892,-1.67322 -6.78016,-2.02093 -9.31401,-3.98217c-0.87378,-0.43858 -5.54952,-2.04709 -2.06607,-2.21412c2.42266,-0.79072 5.06756,-1.09791 7.58217,-1.69049c3.28879,-0.97968 6.66598,-1.78863 10.09569,-2.49385c3.26682,-0.29453 6.3499,-1.1501 9.44129,-1.9045c5.68594,-0.58708 9.98437,-3.63475 15.38397,-4.99411c3.22058,-0.57961 7.59021,-0.56722 10.68229,-1.4005c3.50542,-0.41007 4.83755,-1.65704 6.72955,-3.39637c3.3836,-0.82694 2.00458,3.88093 1.95447,6.09822c0.43376,2.34417 1.38046,4.64018 1.69187,7.01711c0.5233,2.43879 0.62644,4.99036 2.12309,7.23892c0.65293,2.35689 1.89963,4.82026 1.19885,7.19422c-2.63671,0.79367 -5.64133,1.08061 -8.45825,1.66691c-3.33667,0.33478 -6.3469,1.28556 -8.7405,3.00752c-3.55439,1.70588 -3.8391,-2.99775 -7.27727,-2.27243z" fill="#999999" stroke="none" stroke-width="1"/><path d="M328.24642,156.20459c0.6057,0.18523 1.1514,0.46268 1.62762,0.78864c3.26001,2.82685 5.83587,6.95318 9.9725,9.27682c5.84078,2.54861 7.25121,6.225 12.19831,9.45048c3.96461,1.80761 5.55824,5.87423 6.39682,8.88916c2.75635,2.6638 7.89688,1.16301 11.54746,2.52207c5.25445,0.18525 10.51545,0.04719 15.77276,0.07429c4.36296,0.23455 8.7169,0.79008 13.14219,0.60709c4.59623,0.57356 9.61754,0.13024 13.81652,1.85378c23.12425,-0.30054 -2.00741,4.22756 -4.18138,1.49581c-7.42119,-0.03484 -14.84347,0.07277 -22.26357,-0.04952c-8.60804,-1.23257 -17.4308,-1.68388 -26.03966,-2.99282c-4.22803,0.42348 -8.01243,-1.52729 -10.63468,-3.73135c-2.67081,-3.01334 -8.94104,-1.53479 -11.79015,-4.36885c-1.82761,-2.92385 -4.37166,-5.70028 -5.05569,-9.52133c-0.90855,-3.13707 -1.59911,-6.6253 -5.24804,-8.78634c-3.18969,-3.05626 -5.47635,-7.97676 0.73904,-5.5067z" fill="#1a1a1a" stroke="none" stroke-width="1"/><path d="M392.55807,189.75316c1.96171,-0.50745 2.91514,-2.01935 4.73865,-2.68517c1.62557,-0.93194 3.7503,-1.53045 5.84064,-1.25605c2.02323,0.03031 4.04755,-0.39691 6.06996,-0.32827c1.2571,0.44044 3.45017,-0.69675 4.75843,-0.6435c0.99597,0.32504 5.73178,2.53075 5.618,3.20979c2.60478,0.64301 5.03455,1.23691 5.03509,1.97515c0.00054,0.7383 -1.7594,1.94347 -2.63043,2.19676c-0.05111,0.66466 -7.6602,-1.68713 -8.35989,-1.85606c-1.77658,-0.5198 -3.7432,-0.36812 -5.6146,-0.32176c-2.89318,0.06813 -5.78881,-0.08725 -8.68252,-0.00275c-2.00481,0.3865 -4.18533,0.49392 -6.17173,-0.0071c-0.21435,-0.07687 -0.41786,-0.17021 -0.60174,-0.28113z" fill="#333333" stroke="none" stroke-width="1"/><path d="M348.92084,84.31835c3.96543,-0.03542 8.10561,0.78473 12.13202,1.0967c3.62874,2.75088 9.76896,2.12236 14.03478,4.26623c5.95606,1.39458 11.37053,3.93579 17.67444,4.46199c6.09247,0.9484 8.66533,5.61217 11.8589,8.95122c5.05023,3.95454 7.74724,9.58269 14.80146,12.09085c4.96019,1.7785 8.42822,5.26565 7.07087,9.38496c0.5439,3.64709 -1.78136,8.72073 2.90982,11.2354c4.97677,1.56893 3.42588,6.04651 3.66831,9.21584c0.23458,3.92908 -0.13955,8.04603 1.44236,11.81556c0.58196,5.49841 -3.0049,5.72662 -6.95846,6.89664c-5.52675,0.63917 -11.21159,1.00079 -15.85052,3.57614c-5.63574,1.69759 -9.35207,5.63771 -16.13427,5.03595c-5.69468,-0.3557 -9.2282,3.4695 -14.37038,3.60595c-5.94964,-0.14997 -12.09873,1.17021 -17.48482,-1.13923c-5.53152,-3.72474 -10.21887,-2.68694 -12.04907,-6.82027c-4.19679,-1.97702 -3.26724,-8.26182 -9.49736,-9.32813c-2.8212,-2.94476 2.13272,-6.59589 -0.76005,-10.00401c-1.15574,-3.46524 -0.09931,-7.4408 -3.92778,-10.1165c-0.39841,-3.94369 -0.60859,-8.00449 0.34149,-11.90536c3.27224,-4.0608 0.90209,-8.3152 -1.009,-12.33456c0.336,-4.38257 2.38056,-8.68037 2.24668,-13.15253c0.77513,-4.78217 5.5717,-8.66528 6.45903,-13.45938c-1.13542,-2.7507 0.50871,-1.48378 3.40215,-3.37299z" fill="#bba3a3" stroke="none" stroke-width="1"/><path d="M383.63572,91.69829c1.10718,0.85818 3.65003,0.39473 5.3022,0.15113c2.79386,0.29601 4.73647,2.00307 7.35162,2.66701c3.57145,1.193 4.54548,4.20269 7.10879,6.1365c1.5429,1.53578 3.52643,2.93588 4.16623,4.84315c1.73798,1.34998 2.87844,2.47737 4.83605,3.90333c1.86076,1.46 4.21247,2.76321 4.20648,4.72869c4.75311,0.83207 5.82296,1.1637 6.87361,3.0531c2.62689,1.37978 0.48374,5.27444 -3.02809,5.72949c-1.14073,2.25557 -5.32975,0.83664 -7.77861,0.5934c-2.4479,0.54159 -3.98668,-1.03187 -4.6452,-2.55285c-1.80142,-1.59132 -2.29486,-3.64541 -3.62329,-5.41602c-1.68041,-2.30737 -5.00589,-3.63219 -6.93281,-5.81632c-1.45627,-1.73509 -3.57824,-3.2168 -4.44439,-5.17112c-0.52412,-1.66642 0.10136,-4.37136 -3.42643,-4.20269c-2.53248,-0.54929 -4.07102,-2.41561 -6.17296,-3.54615c-0.1326,-2.03327 -4.28864,-1.64057 -4.29065,-3.52286c-0.16507,-2.35856 2.04287,-1.73831 4.49801,-1.57672z" fill="#e6e6e6" stroke="none" stroke-width="1"/><path d="M349.46455,84.45764c-2.17176,1.62841 -0.52082,1.647 1.21511,1.68635c1.24886,-0.05771 2.09953,0.48947 1.95557,0.74439c-0.16278,0.28821 0.10848,1.22992 -0.55833,1.45556c-2.03414,0.54544 -3.75711,1.49216 -5.12172,2.73884c-0.00304,2.09464 0.00304,4.18917 0,6.28381c-0.27543,1.74012 0.55291,3.38236 1.21236,5.02598c0.8799,1.72177 0.44159,3.63367 -1.01127,5.12228c-2.01177,1.72433 -3.45263,3.75395 -4.47795,5.87828c-1.32488,1.49187 -1.75147,3.22647 -2.15761,4.9581c-0.70215,1.72078 0.06495,3.82439 -1.24358,5.37251c-0.53749,1.638 -0.40516,4.3227 -4.1706,4.08409c-0.45437,-1.27815 -0.22825,-3.13203 -0.14055,-4.6167c0.6514,-1.62409 0.0148,-3.45577 1.0758,-5.04364c-0.00108,-4.25883 0.00189,-8.51777 0.00009,-12.7766c-0.37515,-2.61896 2.26867,-4.75573 2.63725,-7.26951c0.08199,-2.16114 1.64521,-4.03692 3.08948,-5.8543c0.98263,-1.5637 1.96261,-3.13599 2.9667,-4.70087c-0.30899,-1.90578 2.12568,-2.97817 4.45531,-3.27767" fill="#808080" stroke="none" stroke-width="1"/><path d="M432.31471,146.33905c0.26732,0.63582 0.24625,1.30994 0.458,1.95393c0.66335,1.27233 0.90289,2.62725 1.08145,3.97358c-0.02467,1.05191 0.01596,2.11338 0.23736,3.15987c0.09516,1.56212 0.75238,3.09356 0.58637,4.66476c-0.05429,1.08434 -2.15662,0.25869 -3.15359,0.31552c-1.12778,-0.04407 -2.19782,0.11553 -3.30557,-0.13709c-1.30812,-0.18176 -2.66196,-0.06176 -3.96052,-0.21679c-1.92555,-0.40618 -3.9245,0.00891 -5.86533,-0.26886c-1.40525,-0.24874 -3.78599,0.22378 -4.01126,-1.28969c0.21547,-0.95768 -0.31249,-1.88792 -1.07132,-2.65735c-0.86378,-0.62556 -0.8974,-1.80184 -2.00836,-2.01708c-0.39657,-1.28407 -1.24953,-2.51871 -2.38829,-3.55799c-1.07496,-0.73666 -1.60444,-1.74417 -2.03919,-2.74279c-0.59551,-0.91337 -1.05725,-1.84721 -1.46677,-2.81531c0.0309,-0.52324 -1.77912,-1.65719 -0.68402,-1.79508c1.35887,0.47436 2.92799,0.41926 4.22408,1.01717c1.71711,0.44381 3.15687,1.26731 4.77999,1.87382c1.12696,0.84332 2.93058,0.43864 4.16556,1.10311c3.21062,-0.00848 6.42138,0.00156 9.632,0.0027c1.69241,0.25256 3.11909,-0.81627 4.7894,-0.5665z" fill="#999999" stroke="none" stroke-width="1"/></g></g></g></svg>